<?xml version="1.0" encoding="UTF-8" standalone="no"?>
<!DOCTYPE svg PUBLIC "-//W3C//DTD SVG 1.1//EN"
 "http://www.w3.org/Graphics/SVG/1.1/DTD/svg11.dtd">
<!-- Generated by graphviz version 2.40.1 (20161225.0304)
 -->
<!-- Title: G Pages: 1 -->
<svg width="720pt" height="332pt"
 viewBox="0.00 0.00 720.00 332.34" xmlns="http://www.w3.org/2000/svg" xmlns:xlink="http://www.w3.org/1999/xlink">
<g id="graph0" class="graph" transform="scale(.6021 .6021) rotate(0) translate(4 548)">
<title>G</title>
<polygon fill="#ffffff" stroke="transparent" points="-4,4 -4,-548 1191.8962,-548 1191.8962,4 -4,4"/>
<!-- O1 -->
<g id="node1" class="node">
<title>O1</title>
<ellipse fill="none" stroke="#ff0000" cx="242" cy="-526" rx="27" ry="18"/>
<text text-anchor="middle" x="242" y="-522.3" font-family="Times,serif" font-size="14.00" fill="#000000">O1</text>
</g>
<!-- O2 -->
<g id="node2" class="node">
<title>O2</title>
<ellipse fill="none" stroke="#ff8c00" cx="702" cy="-453" rx="27" ry="18"/>
<text text-anchor="middle" x="702" y="-449.3" font-family="Times,serif" font-size="14.00" fill="#000000">O2</text>
</g>
<!-- O3 -->
<g id="node3" class="node">
<title>O3</title>
<ellipse fill="none" stroke="#000000" cx="118" cy="-279" rx="27" ry="18"/>
<text text-anchor="middle" x="118" y="-275.3" font-family="Times,serif" font-size="14.00" fill="#000000">O3</text>
</g>
<!-- O3&#45;&gt;O1 -->
<g id="edge1" class="edge">
<title>O3&#45;&gt;O1</title>
<path fill="none" stroke="#000000" stroke-width=".2" d="M126.7194,-296.3686C149.4869,-341.7199 210.5335,-463.3208 233.2902,-508.6506"/>
<text text-anchor="middle" x="195" y="-405.8" font-family="Times,serif" font-size="14.00" fill="#000000">27</text>
</g>
<!-- O4 -->
<g id="node4" class="node">
<title>O4</title>
<ellipse fill="none" stroke="#00ff00" cx="242" cy="-366" rx="27" ry="18"/>
<text text-anchor="middle" x="242" y="-362.3" font-family="Times,serif" font-size="14.00" fill="#000000">O4</text>
</g>
<!-- O4&#45;&gt;O1 -->
<g id="edge2" class="edge">
<title>O4&#45;&gt;O1</title>
<path fill="none" stroke="#000000" stroke-width=".2" d="M242,-384.043C242,-414.7723 242,-476.9263 242,-507.7774"/>
<text text-anchor="middle" x="245.5" y="-449.3" font-family="Times,serif" font-size="14.00" fill="#000000">9</text>
</g>
<!-- O5 -->
<g id="node5" class="node">
<title>O5</title>
<ellipse fill="none" stroke="#0000ff" cx="372" cy="-366" rx="27" ry="18"/>
<text text-anchor="middle" x="372" y="-362.3" font-family="Times,serif" font-size="14.00" fill="#000000">O5</text>
</g>
<!-- O5&#45;&gt;O1 -->
<g id="edge3" class="edge">
<title>O5&#45;&gt;O1</title>
<path fill="none" stroke="#000000" stroke-width=".2" d="M359.0598,-381.9264C334.1415,-412.5951 279.7649,-479.5201 254.8878,-510.138"/>
<text text-anchor="middle" x="319.5" y="-449.3" font-family="Times,serif" font-size="14.00" fill="#000000">9</text>
</g>
<!-- O6 -->
<g id="node6" class="node">
<title>O6</title>
<ellipse fill="none" stroke="#000000" cx="604" cy="-192" rx="27" ry="18"/>
<text text-anchor="middle" x="604" y="-188.3" font-family="Times,serif" font-size="14.00" fill="#000000">O6</text>
</g>
<!-- O6&#45;&gt;O2 -->
<g id="edge4" class="edge">
<title>O6&#45;&gt;O2</title>
<path fill="none" stroke="#000000" stroke-width=".2" d="M610.5822,-209.5302C628.3922,-256.963 677.3908,-387.4591 695.3174,-435.2024"/>
<text text-anchor="middle" x="663" y="-318.8" font-family="Times,serif" font-size="14.00" fill="#000000">27</text>
</g>
<!-- O7 -->
<g id="node7" class="node">
<title>O7</title>
<ellipse fill="none" stroke="#00ff00" cx="702" cy="-279" rx="27" ry="18"/>
<text text-anchor="middle" x="702" y="-275.3" font-family="Times,serif" font-size="14.00" fill="#000000">O7</text>
</g>
<!-- O7&#45;&gt;O2 -->
<g id="edge5" class="edge">
<title>O7&#45;&gt;O2</title>
<path fill="none" stroke="#000000" stroke-width=".2" d="M702,-297.2922C702,-330.7976 702,-401.6305 702,-434.9529"/>
<text text-anchor="middle" x="705.5" y="-362.3" font-family="Times,serif" font-size="14.00" fill="#000000">9</text>
</g>
<!-- O8 -->
<g id="node8" class="node">
<title>O8</title>
<ellipse fill="none" stroke="#00cdcd" cx="808" cy="-366" rx="27" ry="18"/>
<text text-anchor="middle" x="808" y="-362.3" font-family="Times,serif" font-size="14.00" fill="#000000">O8</text>
</g>
<!-- O8&#45;&gt;O2 -->
<g id="edge6" class="edge">
<title>O8&#45;&gt;O2</title>
<path fill="none" stroke="#000000" stroke-width=".2" d="M790.9693,-379.9781C771.3056,-396.1171 739.1346,-422.5216 719.3406,-438.7676"/>
<text text-anchor="middle" x="765.5" y="-405.8" font-family="Times,serif" font-size="14.00" fill="#000000">3</text>
</g>
<!-- O9 -->
<g id="node9" class="node">
<title>O9</title>
<ellipse fill="none" stroke="#000000" cx="27" cy="-18" rx="27" ry="18"/>
<text text-anchor="middle" x="27" y="-14.3" font-family="Times,serif" font-size="14.00" fill="#000000">O9</text>
</g>
<!-- O9&#45;&gt;O3 -->
<g id="edge7" class="edge">
<title>O9&#45;&gt;O3</title>
<path fill="none" stroke="#000000" stroke-width=".2" d="M24.8025,-36.0472C21.3226,-71.4323 17.5796,-151.5619 46,-210 57.6609,-233.9773 81.3475,-254.0764 98.3715,-266.2865"/>
<text text-anchor="middle" x="36" y="-144.8" font-family="Times,serif" font-size="14.00" fill="#000000">27</text>
</g>
<!-- O10 -->
<g id="node10" class="node">
<title>O10</title>
<ellipse fill="none" stroke="#ff1493" cx="82" cy="-192" rx="27" ry="18"/>
<text text-anchor="middle" x="82" y="-188.3" font-family="Times,serif" font-size="14.00" fill="#000000">O10</text>
</g>
<!-- O10&#45;&gt;O3 -->
<g id="edge8" class="edge">
<title>O10&#45;&gt;O3</title>
<path fill="none" stroke="#000000" stroke-width=".2" d="M89.2851,-209.6057C95.531,-224.6999 104.483,-246.3339 110.7257,-261.4204"/>
<text text-anchor="middle" x="106.5" y="-231.8" font-family="Times,serif" font-size="14.00" fill="#000000">3</text>
</g>
<!-- O11 -->
<g id="node11" class="node">
<title>O11</title>
<ellipse fill="none" stroke="#ff1493" cx="154" cy="-192" rx="27" ry="18"/>
<text text-anchor="middle" x="154" y="-188.3" font-family="Times,serif" font-size="14.00" fill="#000000">O11</text>
</g>
<!-- O11&#45;&gt;O3 -->
<g id="edge9" class="edge">
<title>O11&#45;&gt;O3</title>
<path fill="none" stroke="#000000" stroke-width=".2" d="M146.7149,-209.6057C140.469,-224.6999 131.517,-246.3339 125.2743,-261.4204"/>
<text text-anchor="middle" x="142.5" y="-231.8" font-family="Times,serif" font-size="14.00" fill="#000000">3</text>
</g>
<!-- O12 -->
<g id="node12" class="node">
<title>O12</title>
<ellipse fill="none" stroke="#000000" cx="192" cy="-105" rx="27" ry="18"/>
<text text-anchor="middle" x="192" y="-101.3" font-family="Times,serif" font-size="14.00" fill="#000000">O12</text>
</g>
<!-- O12&#45;&gt;O4 -->
<g id="edge10" class="edge">
<title>O12&#45;&gt;O4</title>
<path fill="none" stroke="#000000" stroke-width=".2" d="M195.4367,-122.9396C204.5709,-170.6202 229.3776,-300.111 238.5392,-347.9349"/>
<text text-anchor="middle" x="226" y="-231.8" font-family="Times,serif" font-size="14.00" fill="#000000">27</text>
</g>
<!-- O13 -->
<g id="node13" class="node">
<title>O13</title>
<ellipse fill="none" stroke="#00ff00" cx="264" cy="-192" rx="27" ry="18"/>
<text text-anchor="middle" x="264" y="-188.3" font-family="Times,serif" font-size="14.00" fill="#000000">O13</text>
</g>
<!-- O13&#45;&gt;O4 -->
<g id="edge11" class="edge">
<title>O13&#45;&gt;O4</title>
<path fill="none" stroke="#000000" stroke-width=".2" d="M261.7285,-209.9657C257.5128,-243.3082 248.5233,-314.4063 244.2921,-347.8714"/>
<text text-anchor="middle" x="259.5" y="-275.3" font-family="Times,serif" font-size="14.00" fill="#000000">9</text>
</g>
<!-- O14 -->
<g id="node14" class="node">
<title>O14</title>
<ellipse fill="none" stroke="#000000" cx="372" cy="-105" rx="27" ry="18"/>
<text text-anchor="middle" x="372" y="-101.3" font-family="Times,serif" font-size="14.00" fill="#000000">O14</text>
</g>
<!-- O14&#45;&gt;O5 -->
<g id="edge12" class="edge">
<title>O14&#45;&gt;O5</title>
<path fill="none" stroke="#000000" stroke-width=".2" d="M372,-123.353C372,-171.2748 372,-299.7682 372,-347.6673"/>
<text text-anchor="middle" x="379" y="-231.8" font-family="Times,serif" font-size="14.00" fill="#000000">27</text>
</g>
<!-- O15 -->
<g id="node15" class="node">
<title>O15</title>
<ellipse fill="none" stroke="#0000ff" cx="465" cy="-192" rx="27" ry="18"/>
<text text-anchor="middle" x="465" y="-188.3" font-family="Times,serif" font-size="14.00" fill="#000000">O15</text>
</g>
<!-- O15&#45;&gt;O5 -->
<g id="edge13" class="edge">
<title>O15&#45;&gt;O5</title>
<path fill="none" stroke="#000000" stroke-width=".2" d="M455.9134,-209.0007C438.134,-242.2654 398.9325,-315.6102 381.1234,-348.9303"/>
<text text-anchor="middle" x="431.5" y="-275.3" font-family="Times,serif" font-size="14.00" fill="#000000">9</text>
</g>
<!-- O16 -->
<g id="node16" class="node">
<title>O16</title>
<ellipse fill="none" stroke="#ff1493" cx="532" cy="-105" rx="27" ry="18"/>
<text text-anchor="middle" x="532" y="-101.3" font-family="Times,serif" font-size="14.00" fill="#000000">O16</text>
</g>
<!-- O16&#45;&gt;O6 -->
<g id="edge14" class="edge">
<title>O16&#45;&gt;O6</title>
<path fill="none" stroke="#000000" stroke-width=".2" d="M545.2059,-120.9571C558.197,-136.6547 577.9157,-160.4815 590.8778,-176.144"/>
<text text-anchor="middle" x="576.5" y="-144.8" font-family="Times,serif" font-size="14.00" fill="#000000">3</text>
</g>
<!-- O17 -->
<g id="node17" class="node">
<title>O17</title>
<ellipse fill="none" stroke="#ff1493" cx="604" cy="-105" rx="27" ry="18"/>
<text text-anchor="middle" x="604" y="-101.3" font-family="Times,serif" font-size="14.00" fill="#000000">O17</text>
</g>
<!-- O17&#45;&gt;O6 -->
<g id="edge15" class="edge">
<title>O17&#45;&gt;O6</title>
<path fill="none" stroke="#000000" stroke-width=".2" d="M604,-123.0265C604,-137.9578 604,-159.0717 604,-173.9966"/>
<text text-anchor="middle" x="607.5" y="-144.8" font-family="Times,serif" font-size="14.00" fill="#000000">3</text>
</g>
<!-- O18 -->
<g id="node18" class="node">
<title>O18</title>
<ellipse fill="none" stroke="#000000" cx="659" cy="-18" rx="27" ry="18"/>
<text text-anchor="middle" x="659" y="-14.3" font-family="Times,serif" font-size="14.00" fill="#000000">O18</text>
</g>
<!-- O18&#45;&gt;O7 -->
<g id="edge16" class="edge">
<title>O18&#45;&gt;O7</title>
<path fill="none" stroke="#000000" stroke-width=".2" d="M661.9556,-35.9396C669.811,-83.6202 691.1447,-213.111 699.0238,-260.9349"/>
<text text-anchor="middle" x="689" y="-144.8" font-family="Times,serif" font-size="14.00" fill="#000000">27</text>
</g>
<!-- O19 -->
<g id="node19" class="node">
<title>O19</title>
<ellipse fill="none" stroke="#00ff00" cx="714" cy="-105" rx="27" ry="18"/>
<text text-anchor="middle" x="714" y="-101.3" font-family="Times,serif" font-size="14.00" fill="#000000">O19</text>
</g>
<!-- O19&#45;&gt;O7 -->
<g id="edge17" class="edge">
<title>O19&#45;&gt;O7</title>
<path fill="none" stroke="#000000" stroke-width=".2" d="M712.7385,-123.2922C710.4278,-156.7976 705.5427,-227.6305 703.2446,-260.9529"/>
<text text-anchor="middle" x="713.5" y="-188.3" font-family="Times,serif" font-size="14.00" fill="#000000">9</text>
</g>
<!-- O20 -->
<g id="node20" class="node">
<title>O20</title>
<ellipse fill="none" stroke="#000000" cx="786" cy="-105" rx="27" ry="18"/>
<text text-anchor="middle" x="786" y="-101.3" font-family="Times,serif" font-size="14.00" fill="#000000">O20</text>
</g>
<!-- O20&#45;&gt;O8 -->
<g id="edge18" class="edge">
<title>O20&#45;&gt;O8</title>
<path fill="none" stroke="#000000" stroke-width=".2" d="M787.547,-123.353C791.5962,-171.3909 802.4697,-300.3909 806.4839,-348.0138"/>
<text text-anchor="middle" x="805" y="-231.8" font-family="Times,serif" font-size="14.00" fill="#000000">27</text>
</g>
<!-- O21 -->
<g id="node21" class="node">
<title>O21</title>
<ellipse fill="none" stroke="#00cdcd" cx="841" cy="-279" rx="27" ry="18"/>
<text text-anchor="middle" x="841" y="-275.3" font-family="Times,serif" font-size="14.00" fill="#000000">O21</text>
</g>
<!-- O21&#45;&gt;O8 -->
<g id="edge19" class="edge">
<title>O21&#45;&gt;O8</title>
<path fill="none" stroke="#000000" stroke-width=".2" d="M834.322,-296.6057C828.5966,-311.6999 820.3906,-333.3339 814.6681,-348.4204"/>
<text text-anchor="middle" x="830.5" y="-318.8" font-family="Times,serif" font-size="14.00" fill="#000000">3</text>
</g>
<!-- O22 -->
<g id="node22" class="node">
<title>O22</title>
<ellipse fill="none" stroke="#00cdcd" cx="985" cy="-279" rx="27" ry="18"/>
<text text-anchor="middle" x="985" y="-275.3" font-family="Times,serif" font-size="14.00" fill="#000000">O22</text>
</g>
<!-- O22&#45;&gt;O8 -->
<g id="edge20" class="edge">
<title>O22&#45;&gt;O8</title>
<path fill="none" stroke="#000000" stroke-width=".2" d="M962.9407,-289.8427C928.8375,-306.6053 863.715,-338.6146 829.7813,-355.294"/>
<text text-anchor="middle" x="911.5" y="-318.8" font-family="Times,serif" font-size="14.00" fill="#000000">3</text>
</g>
<!-- O23 -->
<g id="node23" class="node">
<title>O23</title>
<ellipse fill="none" stroke="#ff1493" cx="120" cy="-18" rx="27" ry="18"/>
<text text-anchor="middle" x="120" y="-14.3" font-family="Times,serif" font-size="14.00" fill="#000000">O23</text>
</g>
<!-- O23&#45;&gt;O12 -->
<g id="edge21" class="edge">
<title>O23&#45;&gt;O12</title>
<path fill="none" stroke="#000000" stroke-width=".2" d="M133.2059,-33.9571C146.197,-49.6547 165.9157,-73.4815 178.8778,-89.144"/>
<text text-anchor="middle" x="164.5" y="-57.8" font-family="Times,serif" font-size="14.00" fill="#000000">3</text>
</g>
<!-- O24 -->
<g id="node24" class="node">
<title>O24</title>
<ellipse fill="none" stroke="#ff1493" cx="192" cy="-18" rx="27" ry="18"/>
<text text-anchor="middle" x="192" y="-14.3" font-family="Times,serif" font-size="14.00" fill="#000000">O24</text>
</g>
<!-- O24&#45;&gt;O12 -->
<g id="edge22" class="edge">
<title>O24&#45;&gt;O12</title>
<path fill="none" stroke="#000000" stroke-width=".2" d="M192,-36.0265C192,-50.9578 192,-72.0717 192,-86.9966"/>
<text text-anchor="middle" x="195.5" y="-57.8" font-family="Times,serif" font-size="14.00" fill="#000000">3</text>
</g>
<!-- O25 -->
<g id="node25" class="node">
<title>O25</title>
<ellipse fill="none" stroke="#00ff00" cx="264" cy="-18" rx="27" ry="18"/>
<text text-anchor="middle" x="264" y="-14.3" font-family="Times,serif" font-size="14.00" fill="#000000">O25</text>
</g>
<!-- O25&#45;&gt;O13 -->
<g id="edge23" class="edge">
<title>O25&#45;&gt;O13</title>
<path fill="none" stroke="#000000" stroke-width=".2" d="M264,-36.2922C264,-69.7976 264,-140.6305 264,-173.9529"/>
<text text-anchor="middle" x="267.5" y="-101.3" font-family="Times,serif" font-size="14.00" fill="#000000">9</text>
</g>
<!-- O26 -->
<g id="node26" class="node">
<title>O26</title>
<ellipse fill="none" stroke="#ff1493" cx="336" cy="-18" rx="27" ry="18"/>
<text text-anchor="middle" x="336" y="-14.3" font-family="Times,serif" font-size="14.00" fill="#000000">O26</text>
</g>
<!-- O26&#45;&gt;O14 -->
<g id="edge24" class="edge">
<title>O26&#45;&gt;O14</title>
<path fill="none" stroke="#000000" stroke-width=".2" d="M343.2851,-35.6057C349.531,-50.6999 358.483,-72.3339 364.7257,-87.4204"/>
<text text-anchor="middle" x="360.5" y="-57.8" font-family="Times,serif" font-size="14.00" fill="#000000">3</text>
</g>
<!-- O27 -->
<g id="node27" class="node">
<title>O27</title>
<ellipse fill="none" stroke="#ff1493" cx="408" cy="-18" rx="27" ry="18"/>
<text text-anchor="middle" x="408" y="-14.3" font-family="Times,serif" font-size="14.00" fill="#000000">O27</text>
</g>
<!-- O27&#45;&gt;O14 -->
<g id="edge25" class="edge">
<title>O27&#45;&gt;O14</title>
<path fill="none" stroke="#000000" stroke-width=".2" d="M400.7149,-35.6057C394.469,-50.6999 385.517,-72.3339 379.2743,-87.4204"/>
<text text-anchor="middle" x="396.5" y="-57.8" font-family="Times,serif" font-size="14.00" fill="#000000">3</text>
</g>
<!-- O28 -->
<g id="node28" class="node">
<title>O28</title>
<ellipse fill="none" stroke="#0000ff" cx="480" cy="-18" rx="27" ry="18"/>
<text text-anchor="middle" x="480" y="-14.3" font-family="Times,serif" font-size="14.00" fill="#000000">O28</text>
</g>
<!-- O28&#45;&gt;O15 -->
<g id="edge26" class="edge">
<title>O28&#45;&gt;O15</title>
<path fill="none" stroke="#000000" stroke-width=".2" d="M478.4231,-36.2922C475.5347,-69.7976 469.4284,-140.6305 466.5558,-173.9529"/>
<text text-anchor="middle" x="477.5" y="-101.3" font-family="Times,serif" font-size="14.00" fill="#000000">9</text>
</g>
<!-- O29 -->
<g id="node29" class="node">
<title>O29</title>
<ellipse fill="none" stroke="#ff1493" cx="769" cy="-18" rx="27" ry="18"/>
<text text-anchor="middle" x="769" y="-14.3" font-family="Times,serif" font-size="14.00" fill="#000000">O29</text>
</g>
<!-- O29&#45;&gt;O20 -->
<g id="edge27" class="edge">
<title>O29&#45;&gt;O20</title>
<path fill="none" stroke="#000000" stroke-width=".2" d="M772.5224,-36.0265C775.44,-50.9578 779.5657,-72.0717 782.4821,-86.9966"/>
<text text-anchor="middle" x="782.5" y="-57.8" font-family="Times,serif" font-size="14.00" fill="#000000">3</text>
</g>
<!-- O30 -->
<g id="node30" class="node">
<title>O30</title>
<ellipse fill="none" stroke="#000000" cx="841" cy="-18" rx="27" ry="18"/>
<text text-anchor="middle" x="841" y="-14.3" font-family="Times,serif" font-size="14.00" fill="#000000">O30</text>
</g>
<!-- O30&#45;&gt;O21 -->
<g id="edge28" class="edge">
<title>O30&#45;&gt;O21</title>
<path fill="none" stroke="#000000" stroke-width=".2" d="M841,-36.353C841,-84.2748 841,-212.7682 841,-260.6673"/>
<text text-anchor="middle" x="848" y="-144.8" font-family="Times,serif" font-size="14.00" fill="#000000">27</text>
</g>
<!-- O31 -->
<g id="node31" class="node">
<title>O31</title>
<ellipse fill="none" stroke="#00cdcd" cx="898" cy="-192" rx="27" ry="18"/>
<text text-anchor="middle" x="898" y="-188.3" font-family="Times,serif" font-size="14.00" fill="#000000">O31</text>
</g>
<!-- O31&#45;&gt;O21 -->
<g id="edge29" class="edge">
<title>O31&#45;&gt;O21</title>
<path fill="none" stroke="#000000" stroke-width=".2" d="M887.0098,-208.7745C876.9164,-224.1802 862.0392,-246.8876 851.9564,-262.277"/>
<text text-anchor="middle" x="876.5" y="-231.8" font-family="Times,serif" font-size="14.00" fill="#000000">3</text>
</g>
<!-- O32 -->
<g id="node32" class="node">
<title>O32</title>
<ellipse fill="none" stroke="#000000" cx="985" cy="-18" rx="27" ry="18"/>
<text text-anchor="middle" x="985" y="-14.3" font-family="Times,serif" font-size="14.00" fill="#000000">O32</text>
</g>
<!-- O32&#45;&gt;O22 -->
<g id="edge30" class="edge">
<title>O32&#45;&gt;O22</title>
<path fill="none" stroke="#000000" stroke-width=".2" d="M985,-36.353C985,-84.2748 985,-212.7682 985,-260.6673"/>
<text text-anchor="middle" x="992" y="-144.8" font-family="Times,serif" font-size="14.00" fill="#000000">27</text>
</g>
<!-- O33 -->
<g id="node33" class="node">
<title>O33</title>
<ellipse fill="none" stroke="#00cdcd" cx="1049" cy="-192" rx="27" ry="18"/>
<text text-anchor="middle" x="1049" y="-188.3" font-family="Times,serif" font-size="14.00" fill="#000000">O33</text>
</g>
<!-- O33&#45;&gt;O22 -->
<g id="edge31" class="edge">
<title>O33&#45;&gt;O22</title>
<path fill="none" stroke="#000000" stroke-width=".2" d="M1036.9621,-208.364C1025.5199,-223.9183 1008.4082,-247.1794 996.9839,-262.7093"/>
<text text-anchor="middle" x="1024.5" y="-231.8" font-family="Times,serif" font-size="14.00" fill="#000000">3</text>
</g>
<!-- O34 -->
<g id="node34" class="node">
<title>O34</title>
<ellipse fill="none" stroke="#00cdcd" cx="904" cy="-105" rx="27" ry="18"/>
<text text-anchor="middle" x="904" y="-101.3" font-family="Times,serif" font-size="14.00" fill="#000000">O34</text>
</g>
<!-- O34&#45;&gt;O31 -->
<g id="edge32" class="edge">
<title>O34&#45;&gt;O31</title>
<path fill="none" stroke="#000000" stroke-width=".2" d="M902.7568,-123.0265C901.727,-137.9578 900.2709,-159.0717 899.2416,-173.9966"/>
<text text-anchor="middle" x="905.5" y="-144.8" font-family="Times,serif" font-size="14.00" fill="#000000">3</text>
</g>
<!-- O35 -->
<g id="node35" class="node">
<title>O35</title>
<ellipse fill="none" stroke="#00cdcd" cx="1057" cy="-105" rx="27" ry="18"/>
<text text-anchor="middle" x="1057" y="-101.3" font-family="Times,serif" font-size="14.00" fill="#000000">O35</text>
</g>
<!-- O35&#45;&gt;O33 -->
<g id="edge33" class="edge">
<title>O35&#45;&gt;O33</title>
<path fill="none" stroke="#000000" stroke-width=".2" d="M1055.3424,-123.0265C1053.9694,-137.9578 1052.0279,-159.0717 1050.6555,-173.9966"/>
<text text-anchor="middle" x="1057.5" y="-144.8" font-family="Times,serif" font-size="14.00" fill="#000000">3</text>
</g>
<!-- O36 -->
<g id="node36" class="node">
<title>O36</title>
<ellipse fill="none" stroke="#00cdcd" cx="913" cy="-18" rx="27" ry="18"/>
<text text-anchor="middle" x="913" y="-14.3" font-family="Times,serif" font-size="14.00" fill="#000000">O36</text>
</g>
<!-- O36&#45;&gt;O34 -->
<g id="edge34" class="edge">
<title>O36&#45;&gt;O34</title>
<path fill="none" stroke="#000000" stroke-width=".2" d="M911.1352,-36.0265C909.5906,-50.9578 907.4064,-72.0717 905.8624,-86.9966"/>
<text text-anchor="middle" x="913.5" y="-57.8" font-family="Times,serif" font-size="14.00" fill="#000000">3</text>
</g>
<!-- O37 -->
<g id="node37" class="node">
<title>O37</title>
<ellipse fill="none" stroke="#00cdcd" cx="1057" cy="-18" rx="27" ry="18"/>
<text text-anchor="middle" x="1057" y="-14.3" font-family="Times,serif" font-size="14.00" fill="#000000">O37</text>
</g>
<!-- O37&#45;&gt;O35 -->
<g id="edge35" class="edge">
<title>O37&#45;&gt;O35</title>
<path fill="none" stroke="#000000" stroke-width=".2" d="M1057,-36.0265C1057,-50.9578 1057,-72.0717 1057,-86.9966"/>
<text text-anchor="middle" x="1060.5" y="-57.8" font-family="Times,serif" font-size="14.00" fill="#000000">3</text>
</g>
<!-- dummy1 -->
<!-- dummy2 -->
<!-- dummy2&#45;&gt;dummy1 -->
<!-- dummy3 -->
<!-- dummy3&#45;&gt;dummy2 -->
<!-- dummy4 -->
<!-- dummy4&#45;&gt;dummy3 -->
<!-- dummy5 -->
<!-- dummy5&#45;&gt;dummy4 -->
<!-- dummy6 -->
<!-- dummy6&#45;&gt;dummy5 -->
<!-- dummy7 -->
<!-- dummy7&#45;&gt;dummy6 -->
</g>
</svg>
